<svg width="1770" height="269" viewBox="0 0 1770 269" fill="none" xmlns="http://www.w3.org/2000/svg">
<path d="M351.44 116V24.224H363.856V116H351.44ZM342.224 116V110.752C342.224 109.984 342.395 109.387 342.736 108.96C343.077 108.448 343.589 108.149 344.272 108.064L353.872 106.016L355.28 116H342.224ZM360.144 116L361.552 106.016L371.152 108.064C371.835 108.149 372.347 108.448 372.688 108.96C373.029 109.387 373.2 109.984 373.2 110.752V116H360.144ZM355.28 24.224L353.872 34.208L344.272 32.16C343.589 31.9893 343.077 31.6907 342.736 31.264C342.395 30.8373 342.224 30.24 342.224 29.472V24.224H355.28ZM373.2 24.224V29.472C373.2 30.24 373.029 30.8373 372.688 31.264C372.347 31.6907 371.835 31.9893 371.152 32.16L361.552 34.208L360.144 24.224H373.2ZM390.175 116V51.104H396.959C398.666 51.104 399.69 51.9147 400.031 53.536L400.927 60.576C403.743 57.4187 406.9 54.9013 410.399 53.024C413.898 51.0613 417.908 50.08 422.431 50.08C427.21 50.08 431.178 51.104 434.335 53.152C437.578 55.2 440.01 58.1013 441.631 61.856C443.338 65.5253 444.191 69.792 444.191 74.656V116H432.799V74.656C432.799 69.792 431.647 65.9947 429.343 63.264C427.124 60.5333 423.711 59.168 419.103 59.168C415.775 59.168 412.618 59.9787 409.631 61.6C406.73 63.2213 404.042 65.44 401.567 68.256V116H390.175ZM380.959 116V110.752C380.959 109.984 381.13 109.387 381.471 108.96C381.812 108.448 382.324 108.149 383.007 108.064L392.607 106.016L394.015 116H380.959ZM397.727 116L399.135 106.016L408.735 108.064C409.418 108.149 409.93 108.448 410.271 108.96C410.612 109.387 410.783 109.984 410.783 110.752V116H397.727ZM440.351 116L441.759 106.016L451.359 108.064C452.042 108.149 452.554 108.448 452.895 108.96C453.236 109.387 453.407 109.984 453.407 110.752V116H440.351ZM394.015 51.104L392.607 61.088L383.007 59.04C382.324 58.8693 381.812 58.5707 381.471 58.144C381.13 57.7173 380.959 57.12 380.959 56.352V51.104H394.015ZM468.949 116V60.832L461.781 60.064C460.928 59.808 460.202 59.4667 459.605 59.04C459.008 58.6133 458.709 57.9733 458.709 57.12V52.384H468.949V46.112C468.949 38.7733 470.954 33.0987 474.965 29.088C478.976 24.992 484.394 22.944 491.221 22.944C492.672 22.944 494.08 23.072 495.445 23.328C496.81 23.4987 498.09 23.7973 499.285 24.224L499.029 29.856C498.944 30.624 498.688 31.136 498.261 31.392C497.92 31.5627 497.45 31.648 496.853 31.648C496.256 31.648 495.658 31.648 495.061 31.648C494.464 31.648 493.824 31.648 493.141 31.648C488.874 31.648 485.632 32.8427 483.413 35.232C481.194 37.536 480.085 41.2907 480.085 46.496V52.384H498.773V60.704H480.469V116H468.949ZM459.733 116V110.752C459.733 109.984 459.904 109.387 460.245 108.96C460.586 108.448 461.098 108.149 461.781 108.064L471.381 106.016L472.789 116H459.733ZM476.629 116L478.037 106.016L487.637 108.064C488.32 108.149 488.832 108.448 489.173 108.96C489.514 109.387 489.685 109.984 489.685 110.752V116H476.629ZM537.953 116.896C531.724 116.896 526.262 115.488 521.569 112.672C516.961 109.856 513.377 105.845 510.817 100.64C508.257 95.4347 506.977 89.2907 506.977 82.208C506.977 76.1493 508.214 70.688 510.689 65.824C513.164 60.96 516.662 57.12 521.185 54.304C525.793 51.488 531.169 50.08 537.313 50.08C542.689 50.08 547.382 51.2747 551.393 53.664C555.404 56.0533 558.518 59.424 560.737 63.776C563.041 68.0427 564.193 73.1627 564.193 79.136C564.193 80.928 563.98 82.1227 563.553 82.72C563.212 83.3173 562.486 83.616 561.377 83.616H518.241C518.241 83.872 518.241 84.1707 518.241 84.512C518.241 84.768 518.241 85.024 518.241 85.28C518.668 92.448 520.673 98.0373 524.257 102.048C527.841 105.973 532.705 107.936 538.849 107.936C541.494 107.936 544.097 107.424 546.657 106.4C549.302 105.291 551.606 104.224 553.569 103.2C555.617 102.176 557.068 101.664 557.921 101.664C558.86 101.664 559.585 102.005 560.097 102.688L563.297 106.912C561.59 109.131 559.286 111.008 556.385 112.544C553.569 113.995 550.54 115.104 547.297 115.872C544.054 116.555 540.94 116.896 537.953 116.896ZM518.625 76.448H553.953C553.953 71.1573 552.502 66.848 549.601 63.52C546.7 60.192 542.689 58.528 537.569 58.528C532.022 58.528 527.67 60.1067 524.513 63.264C521.356 66.4213 519.393 70.816 518.625 76.448ZM581.3 116V51.104H587.828C589.108 51.104 590.004 51.36 590.516 51.872C591.028 52.2987 591.327 53.1093 591.412 54.304L592.18 64.416C594.399 59.8933 597.129 56.352 600.372 53.792C603.615 51.232 607.455 49.952 611.892 49.952C613.684 49.952 615.305 50.1653 616.756 50.592C618.207 51.0187 619.529 51.5733 620.724 52.256L619.316 60.832C619.231 61.344 618.975 61.728 618.548 61.984C618.207 62.24 617.78 62.368 617.268 62.368C616.671 62.368 615.519 62.1973 613.812 61.856C612.105 61.4293 610.612 61.216 609.332 61.216C605.407 61.216 602.079 62.368 599.348 64.672C596.703 66.976 594.484 70.304 592.692 74.656V116H581.3ZM588.852 116L590.26 106.016L599.86 108.064C600.543 108.149 601.055 108.448 601.396 108.96C601.737 109.387 601.908 109.984 601.908 110.752V116H588.852ZM572.084 116V110.752C572.084 109.984 572.255 109.387 572.596 108.96C572.937 108.448 573.449 108.149 574.132 108.064L583.732 106.016L585.14 116H572.084ZM585.14 51.104L583.732 61.088L574.132 59.04C573.449 58.8693 572.937 58.5707 572.596 58.144C572.255 57.7173 572.084 57.12 572.084 56.352V51.104H585.14ZM657.828 116.896C651.599 116.896 646.137 115.488 641.444 112.672C636.836 109.856 633.252 105.845 630.692 100.64C628.132 95.4347 626.852 89.2907 626.852 82.208C626.852 76.1493 628.089 70.688 630.564 65.824C633.039 60.96 636.537 57.12 641.06 54.304C645.668 51.488 651.044 50.08 657.188 50.08C662.564 50.08 667.257 51.2747 671.268 53.664C675.279 56.0533 678.393 59.424 680.612 63.776C682.916 68.0427 684.068 73.1627 684.068 79.136C684.068 80.928 683.855 82.1227 683.428 82.72C683.087 83.3173 682.361 83.616 681.252 83.616H638.116C638.116 83.872 638.116 84.1707 638.116 84.512C638.116 84.768 638.116 85.024 638.116 85.28C638.543 92.448 640.548 98.0373 644.132 102.048C647.716 105.973 652.58 107.936 658.724 107.936C661.369 107.936 663.972 107.424 666.532 106.4C669.177 105.291 671.481 104.224 673.444 103.2C675.492 102.176 676.943 101.664 677.796 101.664C678.735 101.664 679.46 102.005 679.972 102.688L683.172 106.912C681.465 109.131 679.161 111.008 676.26 112.544C673.444 113.995 670.415 115.104 667.172 115.872C663.929 116.555 660.815 116.896 657.828 116.896ZM638.5 76.448H673.828C673.828 71.1573 672.377 66.848 669.476 63.52C666.575 60.192 662.564 58.528 657.444 58.528C651.897 58.528 647.545 60.1067 644.388 63.264C641.231 66.4213 639.268 70.816 638.5 76.448ZM701.175 116V51.104H707.959C709.666 51.104 710.69 51.9147 711.031 53.536L711.927 60.576C714.743 57.4187 717.9 54.9013 721.399 53.024C724.898 51.0613 728.908 50.08 733.431 50.08C738.21 50.08 742.178 51.104 745.335 53.152C748.578 55.2 751.01 58.1013 752.631 61.856C754.338 65.5253 755.191 69.792 755.191 74.656V116H743.799V74.656C743.799 69.792 742.647 65.9947 740.343 63.264C738.124 60.5333 734.711 59.168 730.103 59.168C726.775 59.168 723.618 59.9787 720.631 61.6C717.73 63.2213 715.042 65.44 712.567 68.256V116H701.175ZM691.959 116V110.752C691.959 109.984 692.13 109.387 692.471 108.96C692.812 108.448 693.324 108.149 694.007 108.064L703.607 106.016L705.015 116H691.959ZM708.727 116L710.135 106.016L719.735 108.064C720.418 108.149 720.93 108.448 721.271 108.96C721.612 109.387 721.783 109.984 721.783 110.752V116H708.727ZM751.351 116L752.759 106.016L762.359 108.064C763.042 108.149 763.554 108.448 763.895 108.96C764.236 109.387 764.407 109.984 764.407 110.752V116H751.351ZM705.015 51.104L703.607 61.088L694.007 59.04C693.324 58.8693 692.812 58.5707 692.471 58.144C692.13 57.7173 691.959 57.12 691.959 56.352V51.104H705.015ZM799.149 116.896C793.517 116.896 788.525 115.531 784.173 112.8C779.906 109.984 776.536 106.059 774.061 101.024C771.672 95.9893 770.477 90.144 770.477 83.488C770.477 77.0027 771.629 71.2427 773.933 66.208C776.237 61.1733 779.65 57.248 784.173 54.432C788.696 51.5307 794.328 50.08 801.069 50.08C803.714 50.08 806.786 50.5493 810.285 51.488C813.784 52.3413 817.112 53.408 820.269 54.688V61.6L813.613 61.216C811.906 60.6187 810.072 60.1067 808.109 59.68C806.232 59.2533 804.098 59.04 801.709 59.04C797.357 59.04 793.73 60.064 790.829 62.112C788.013 64.0747 785.88 66.8907 784.429 70.56C782.978 74.2293 782.253 78.5387 782.253 83.488C782.253 90.912 783.874 96.8853 787.117 101.408C790.36 105.845 795.01 108.064 801.069 108.064C804.397 108.064 807.128 107.552 809.261 106.528C811.394 105.419 813.144 104.352 814.509 103.328C815.874 102.219 816.941 101.664 817.709 101.664C818.136 101.664 818.52 101.749 818.861 101.92C819.288 102.091 819.629 102.347 819.885 102.688L823.085 106.912C820.269 110.325 816.77 112.843 812.589 114.464C808.408 116.085 803.928 116.896 799.149 116.896ZM812.077 59.936L820.269 61.6V71.584H816.045C815.192 71.584 814.552 71.4133 814.125 71.072C813.698 70.6453 813.442 70.1333 813.357 69.536L812.077 59.936ZM861.953 116.896C855.724 116.896 850.262 115.488 845.569 112.672C840.961 109.856 837.377 105.845 834.817 100.64C832.257 95.4347 830.977 89.2907 830.977 82.208C830.977 76.1493 832.214 70.688 834.689 65.824C837.164 60.96 840.662 57.12 845.185 54.304C849.793 51.488 855.169 50.08 861.313 50.08C866.689 50.08 871.382 51.2747 875.393 53.664C879.404 56.0533 882.518 59.424 884.737 63.776C887.041 68.0427 888.193 73.1627 888.193 79.136C888.193 80.928 887.98 82.1227 887.553 82.72C887.212 83.3173 886.486 83.616 885.377 83.616H842.241C842.241 83.872 842.241 84.1707 842.241 84.512C842.241 84.768 842.241 85.024 842.241 85.28C842.668 92.448 844.673 98.0373 848.257 102.048C851.841 105.973 856.705 107.936 862.849 107.936C865.494 107.936 868.097 107.424 870.657 106.4C873.302 105.291 875.606 104.224 877.569 103.2C879.617 102.176 881.068 101.664 881.921 101.664C882.86 101.664 883.585 102.005 884.097 102.688L887.297 106.912C885.59 109.131 883.286 111.008 880.385 112.544C877.569 113.995 874.54 115.104 871.297 115.872C868.054 116.555 864.94 116.896 861.953 116.896ZM842.625 76.448H877.953C877.953 71.1573 876.502 66.848 873.601 63.52C870.7 60.192 866.689 58.528 861.569 58.528C856.022 58.528 851.67 60.1067 848.513 63.264C845.356 66.4213 843.393 70.816 842.625 76.448ZM925.14 117.024C921.897 117.024 918.569 116.725 915.156 116.128C911.828 115.616 908.713 114.976 905.812 114.208C902.996 113.44 900.735 112.757 899.028 112.16V100.768L908.884 103.2C912.383 104.48 915.327 105.376 917.716 105.888C920.191 106.4 923.007 106.656 926.164 106.656C930.004 106.656 933.289 105.973 936.02 104.608C938.836 103.243 941.012 101.323 942.548 98.848C944.084 96.3733 944.852 93.5573 944.852 90.4C944.852 87.4133 944.212 84.9813 942.932 83.104C941.652 81.2267 939.945 79.7333 937.812 78.624C935.679 77.4293 933.289 76.448 930.644 75.68C928.084 74.8267 925.439 73.9307 922.708 72.992C919.209 71.7973 915.753 70.304 912.34 68.512C909.012 66.72 906.281 64.3307 904.148 61.344C902.015 58.272 900.948 54.2187 900.948 49.184C900.948 44.1493 902.1 39.6693 904.404 35.744C906.793 31.8187 910.121 28.7467 914.388 26.528C918.655 24.3093 923.689 23.2 929.492 23.2C933.161 23.2 937.215 23.6693 941.652 24.608C946.175 25.4613 950.441 26.7413 954.452 28.448V37.92L944.724 36C941.993 35.232 939.263 34.6347 936.532 34.208C933.887 33.7813 931.54 33.568 929.492 33.568C924.287 33.568 920.148 34.8907 917.076 37.536C914.004 40.096 912.468 43.424 912.468 47.52C912.468 51.104 913.535 53.8773 915.668 55.84C917.887 57.8027 920.66 59.3813 923.988 60.576C927.401 61.7707 930.9 63.008 934.484 64.288C938.495 65.6533 942.164 67.2747 945.492 69.152C948.82 71.0293 951.465 73.504 953.428 76.576C955.476 79.5627 956.5 83.5733 956.5 88.608C956.5 93.984 955.22 98.848 952.66 103.2C950.185 107.467 946.601 110.837 941.908 113.312C937.3 115.787 931.711 117.024 925.14 117.024ZM943.956 34.72L954.452 37.92V49.568H948.564C947.881 49.568 947.284 49.44 946.772 49.184C946.345 48.8427 946.047 48.288 945.876 47.52L943.956 34.72ZM909.524 103.968L899.028 100.768V89.12H904.916C905.599 89.12 906.196 89.2907 906.708 89.632C907.22 89.888 907.519 90.4 907.604 91.168L909.524 103.968ZM990.154 117.024C985.034 117.024 981.066 115.616 978.25 112.8C975.519 109.899 974.154 105.76 974.154 100.384V60.704H966.346C965.663 60.704 965.066 60.4907 964.554 60.064C964.127 59.6373 963.914 58.9973 963.914 58.144V53.664L974.538 52.256L977.226 32.288C977.397 30.8373 978.25 30.112 979.786 30.112H985.546V52.384H1004.11V60.704H985.546V99.616C985.546 102.347 986.186 104.395 987.466 105.76C988.831 107.04 990.581 107.68 992.714 107.68C993.653 107.68 994.677 107.424 995.786 106.912C996.895 106.4 997.919 105.888 998.858 105.376C999.797 104.864 1000.48 104.608 1000.91 104.608C1001.5 104.608 1002.02 104.949 1002.44 105.632L1005.77 111.136C1003.81 112.928 1001.42 114.379 998.602 115.488C995.871 116.512 993.055 117.024 990.154 117.024ZM1031.53 117.024C1028.12 117.024 1025.05 116.384 1022.32 115.104C1019.59 113.739 1017.41 111.776 1015.79 109.216C1014.17 106.656 1013.36 103.499 1013.36 99.744C1013.36 97.184 1014.04 94.752 1015.41 92.448C1016.86 90.0587 1019.16 87.9253 1022.32 86.048C1025.48 84.256 1029.57 82.7627 1034.61 81.568C1039.73 80.3733 1045.96 79.6907 1053.29 79.52V74.528C1053.29 69.4933 1052.18 65.696 1049.97 63.136C1047.83 60.4907 1044.68 59.168 1040.49 59.168C1038.28 59.168 1035.93 59.7653 1033.45 60.96C1031.06 62.0693 1028.85 63.2213 1026.8 64.416C1024.75 65.5253 1023.13 66.08 1021.93 66.08C1021.17 66.08 1020.48 65.8667 1019.89 65.44C1019.37 65.0133 1018.95 64.5013 1018.61 63.904L1016.56 60.32C1020.14 56.8213 1023.98 54.2187 1028.08 52.512C1032.26 50.8053 1036.87 49.952 1041.9 49.952C1046.77 49.952 1050.86 50.976 1054.19 53.024C1057.52 55.072 1060.04 57.9307 1061.74 61.6C1063.53 65.2693 1064.43 69.5787 1064.43 74.528V116H1059.44C1058.33 116 1057.43 115.829 1056.75 115.488C1056.07 115.147 1055.6 114.421 1055.34 113.312L1054.06 107.296C1050.65 110.368 1047.24 112.757 1043.82 114.464C1040.41 116.171 1036.31 117.024 1031.53 117.024ZM1034.86 108.96C1038.7 108.96 1042.07 108.192 1044.97 106.656C1047.88 105.12 1050.65 102.987 1053.29 100.256V86.816C1048.86 86.9013 1044.85 87.2427 1041.26 87.84C1037.68 88.352 1034.61 89.12 1032.05 90.144C1029.57 91.0827 1027.65 92.32 1026.29 93.856C1025.01 95.3067 1024.37 97.0987 1024.37 99.232C1024.37 102.645 1025.35 105.12 1027.31 106.656C1029.36 108.192 1031.88 108.96 1034.86 108.96ZM1060.59 116L1062 106.016L1071.6 108.064C1072.28 108.149 1072.79 108.448 1073.13 108.96C1073.48 109.387 1073.65 109.984 1073.65 110.752V116H1060.59ZM1108.27 116.896C1102.64 116.896 1097.65 115.531 1093.3 112.8C1089.03 109.984 1085.66 106.059 1083.19 101.024C1080.8 95.9893 1079.6 90.144 1079.6 83.488C1079.6 77.0027 1080.75 71.2427 1083.06 66.208C1085.36 61.1733 1088.78 57.248 1093.3 54.432C1097.82 51.5307 1103.45 50.08 1110.19 50.08C1112.84 50.08 1115.91 50.5493 1119.41 51.488C1122.91 52.3413 1126.24 53.408 1129.39 54.688V61.6L1122.74 61.216C1121.03 60.6187 1119.2 60.1067 1117.23 59.68C1115.36 59.2533 1113.22 59.04 1110.83 59.04C1106.48 59.04 1102.86 60.064 1099.95 62.112C1097.14 64.0747 1095 66.8907 1093.55 70.56C1092.1 74.2293 1091.38 78.5387 1091.38 83.488C1091.38 90.912 1093 96.8853 1096.24 101.408C1099.48 105.845 1104.14 108.064 1110.19 108.064C1113.52 108.064 1116.25 107.552 1118.39 106.528C1120.52 105.419 1122.27 104.352 1123.63 103.328C1125 102.219 1126.07 101.664 1126.83 101.664C1127.26 101.664 1127.64 101.749 1127.99 101.92C1128.41 102.091 1128.75 102.347 1129.01 102.688L1132.21 106.912C1129.39 110.325 1125.9 112.843 1121.71 114.464C1117.53 116.085 1113.05 116.896 1108.27 116.896ZM1121.2 59.936L1129.39 61.6V71.584H1125.17C1124.32 71.584 1123.68 71.4133 1123.25 71.072C1122.82 70.6453 1122.57 70.1333 1122.48 69.536L1121.2 59.936ZM1148.55 116V21.664H1159.94V77.216H1162.89C1163.74 77.216 1164.46 77.088 1165.06 76.832C1165.66 76.576 1166.26 76.1067 1166.85 75.424L1187.33 53.408C1188.02 52.7253 1188.66 52.1707 1189.25 51.744C1189.85 51.3173 1190.7 51.104 1191.81 51.104H1202.18L1178.25 76.576C1177.65 77.1733 1177.05 77.7707 1176.45 78.368C1175.94 78.9653 1175.3 79.4773 1174.53 79.904C1175.98 80.928 1177.26 82.2933 1178.37 84L1203.72 116H1193.48C1192.54 116 1191.77 115.829 1191.17 115.488C1190.58 115.061 1189.94 114.464 1189.25 113.696L1167.88 87.2C1167.28 86.2613 1166.64 85.664 1165.96 85.408C1165.36 85.152 1164.42 85.024 1163.14 85.024H1159.94V116H1148.55ZM1189 61.472L1186.31 57.248V51.104H1201.16L1190.79 61.088L1189 61.472ZM1193.48 116L1187.33 104.352L1194.89 106.016L1193.48 116ZM1139.33 116V110.752C1139.33 109.984 1139.5 109.387 1139.85 108.96C1140.19 108.448 1140.7 108.149 1141.38 108.064L1150.98 106.016L1152.39 116H1139.33ZM1156.1 116L1157.51 106.016L1167.11 108.064C1167.79 108.149 1168.3 108.448 1168.65 108.96C1168.99 109.387 1169.16 109.984 1169.16 110.752V116H1156.1ZM1152.39 21.664L1150.98 31.648L1141.38 29.6C1140.7 29.4293 1140.19 29.1307 1139.85 28.704C1139.5 28.2773 1139.33 27.68 1139.33 26.912V21.664H1152.39ZM1202.44 51.104V56.352C1202.44 57.12 1202.27 57.7173 1201.93 58.144C1201.58 58.5707 1201.07 58.8693 1200.39 59.04L1190.79 61.088L1189.38 51.104H1202.44ZM1189.25 51.104L1187.85 61.088L1178.25 59.04C1177.56 58.8693 1177.05 58.5707 1176.71 58.144C1176.37 57.7173 1176.2 57.12 1176.2 56.352V51.104H1189.25ZM1193.48 116L1194.89 106.016L1204.49 108.064C1205.17 108.149 1205.68 108.448 1206.02 108.96C1206.36 109.387 1206.53 109.984 1206.53 110.752V116H1193.48Z" fill="white"/>
<path d="M349.232 241V173.224H389.648V176.68H353.456V205H381.488V208.36H353.456V237.544H389.744V241H349.232ZM386 238.792L386.672 229.576C386.736 229.32 386.864 229.096 387.056 228.904C387.248 228.712 387.472 228.616 387.728 228.616H389.744V237.544L386 238.792ZM385.904 175.432L389.648 176.68V185.608H387.632C387.376 185.608 387.152 185.512 386.96 185.32C386.768 185.128 386.64 184.904 386.576 184.648L385.904 175.432ZM350.48 173.224L350 176.68L342.704 176.008C342.448 175.944 342.224 175.848 342.032 175.72C341.84 175.528 341.744 175.272 341.744 174.952V173.224H350.48ZM341.744 241V239.272C341.744 238.952 341.84 238.696 342.032 238.504C342.224 238.312 342.448 238.216 342.704 238.216L350 237.448L350.48 241H341.744ZM404.618 241V193.384H406.73C407.498 193.384 407.914 193.768 407.978 194.536L408.362 202.12C410.538 199.24 413.098 196.936 416.042 195.208C418.986 193.48 422.25 192.616 425.834 192.616C429.418 192.616 432.362 193.352 434.666 194.824C436.97 196.232 438.698 198.28 439.85 200.968C441.066 203.656 441.674 206.856 441.674 210.568V241H437.834V210.568C437.834 205.832 436.778 202.184 434.666 199.624C432.554 197 429.322 195.688 424.97 195.688C421.706 195.688 418.698 196.552 415.946 198.28C413.194 199.944 410.73 202.248 408.554 205.192V241H404.618ZM397.13 241V239.272C397.13 238.952 397.226 238.696 397.418 238.504C397.61 238.312 397.834 238.216 398.09 238.216L405.386 237.448L405.866 241H397.13ZM407.306 241L407.69 237.448L415.082 238.216C415.338 238.216 415.562 238.312 415.754 238.504C415.946 238.696 416.042 238.952 416.042 239.272V241H407.306ZM440.426 241L440.906 237.448L448.202 238.216C448.522 238.216 448.778 238.312 448.97 238.504C449.162 238.696 449.258 238.952 449.258 239.272V241H440.426ZM405.866 193.384L405.386 196.84L398.09 196.168C397.834 196.104 397.61 196.008 397.418 195.88C397.226 195.688 397.13 195.432 397.13 195.112V193.384H405.866ZM470.649 241.768C467.513 241.768 465.049 240.904 463.257 239.176C461.529 237.448 460.665 234.728 460.665 231.016V197.896H453.657C453.273 197.896 452.985 197.8 452.793 197.608C452.601 197.416 452.505 197.16 452.505 196.84V195.496L460.761 194.92L461.817 177.448C461.817 176.808 462.137 176.488 462.777 176.488H464.601V195.016H479.865V197.896H464.601V230.824C464.601 233.448 465.241 235.4 466.521 236.68C467.801 237.96 469.433 238.6 471.417 238.6C472.377 238.6 473.401 238.312 474.489 237.736C475.577 237.16 476.537 236.616 477.369 236.104C478.265 235.528 478.873 235.24 479.193 235.24C479.449 235.24 479.673 235.368 479.865 235.624L480.921 237.256C479.769 238.6 478.233 239.688 476.313 240.52C474.393 241.352 472.505 241.768 470.649 241.768ZM508.469 241.576C503.989 241.576 500.117 240.552 496.853 238.504C493.653 236.392 491.157 233.448 489.365 229.672C487.637 225.832 486.773 221.352 486.773 216.232C486.773 211.624 487.605 207.56 489.269 204.04C490.997 200.456 493.461 197.672 496.661 195.688C499.861 193.64 503.701 192.616 508.181 192.616C511.893 192.616 515.125 193.48 517.877 195.208C520.629 196.872 522.773 199.24 524.309 202.312C525.909 205.384 526.709 209.096 526.709 213.448C526.709 214.024 526.613 214.44 526.421 214.696C526.293 214.888 526.005 214.984 525.557 214.984H490.709C490.709 215.304 490.709 215.624 490.709 215.944C490.709 216.2 490.709 216.584 490.709 217.096C490.837 223.688 492.469 228.904 495.605 232.744C498.741 236.584 503.125 238.504 508.757 238.504C511.125 238.504 513.301 238.152 515.285 237.448C517.333 236.68 519.093 235.88 520.565 235.048C522.101 234.216 523.157 233.672 523.733 233.416C524.181 233.288 524.565 233.384 524.885 233.704L525.749 234.952C524.789 236.232 523.349 237.384 521.429 238.408C519.573 239.368 517.493 240.136 515.189 240.712C512.885 241.288 510.645 241.576 508.469 241.576ZM490.901 212.392H523.157C523.157 207.272 521.781 203.208 519.029 200.2C516.341 197.128 512.757 195.592 508.277 195.592C503.221 195.592 499.189 197.128 496.181 200.2C493.173 203.208 491.413 207.272 490.901 212.392ZM540.743 241V193.384H542.759C543.271 193.384 543.623 193.48 543.815 193.672C544.007 193.864 544.135 194.216 544.199 194.728L544.487 205.768C545.959 201.608 547.975 198.376 550.535 196.072C553.095 193.704 556.327 192.52 560.231 192.52C561.703 192.52 563.047 192.68 564.263 193C565.543 193.32 566.727 193.768 567.815 194.344L567.239 196.936C567.175 197.192 567.047 197.384 566.855 197.512C566.663 197.64 566.439 197.672 566.183 197.608C565.671 197.48 564.775 197.256 563.495 196.936C562.215 196.552 560.903 196.36 559.559 196.36C555.847 196.36 552.807 197.544 550.439 199.912C548.071 202.28 546.151 205.672 544.679 210.088V241H540.743ZM543.431 241L543.815 237.448L551.207 238.216C551.463 238.216 551.687 238.312 551.879 238.504C552.071 238.696 552.167 238.952 552.167 239.272V241H543.431ZM533.255 241V239.272C533.255 238.952 533.351 238.696 533.543 238.504C533.735 238.312 533.959 238.216 534.215 238.216L541.511 237.448L541.991 241H533.255ZM541.991 193.384L541.511 196.84L534.215 196.168C533.959 196.104 533.735 196.008 533.543 195.88C533.351 195.688 533.255 195.432 533.255 195.112V193.384H541.991ZM579.837 257.992V193.384H581.949C582.717 193.384 583.133 193.768 583.197 194.536L583.581 202.216C585.693 199.272 588.189 196.936 591.069 195.208C593.949 193.416 597.149 192.52 600.669 192.52C604.701 192.52 608.093 193.448 610.845 195.304C613.661 197.16 615.773 199.88 617.181 203.464C618.589 207.048 619.293 211.528 619.293 216.904C619.293 221.448 618.493 225.608 616.893 229.384C615.293 233.16 612.957 236.136 609.885 238.312C606.813 240.488 603.037 241.576 598.557 241.576C595.229 241.576 592.349 240.968 589.917 239.752C587.549 238.472 585.501 236.616 583.773 234.184V257.992H579.837ZM597.789 238.504C601.693 238.504 604.925 237.608 607.485 235.816C610.109 233.96 612.061 231.4 613.341 228.136C614.685 224.872 615.357 221.128 615.357 216.904C615.357 209.8 614.013 204.488 611.325 200.968C608.701 197.448 604.797 195.688 599.613 195.688C596.413 195.688 593.469 196.552 590.781 198.28C588.157 200.008 585.821 202.376 583.773 205.384V230.728C585.629 233.608 587.677 235.624 589.917 236.776C592.221 237.928 594.845 238.504 597.789 238.504ZM581.085 193.384L580.605 196.84L573.309 196.168C573.053 196.104 572.829 196.008 572.637 195.88C572.445 195.688 572.349 195.432 572.349 195.112V193.384H581.085ZM572.349 257.992V256.264C572.349 255.944 572.445 255.688 572.637 255.496C572.829 255.304 573.053 255.208 573.309 255.208L580.605 254.44L581.085 257.992H572.349ZM582.525 257.992L582.909 254.44L590.301 255.208C590.557 255.208 590.781 255.304 590.973 255.496C591.165 255.688 591.261 255.944 591.261 256.264V257.992H582.525ZM633.368 241V193.384H635.384C635.896 193.384 636.248 193.48 636.44 193.672C636.632 193.864 636.76 194.216 636.824 194.728L637.112 205.768C638.584 201.608 640.6 198.376 643.16 196.072C645.72 193.704 648.952 192.52 652.856 192.52C654.328 192.52 655.672 192.68 656.888 193C658.168 193.32 659.352 193.768 660.44 194.344L659.864 196.936C659.8 197.192 659.672 197.384 659.48 197.512C659.288 197.64 659.064 197.672 658.808 197.608C658.296 197.48 657.4 197.256 656.12 196.936C654.84 196.552 653.528 196.36 652.184 196.36C648.472 196.36 645.432 197.544 643.064 199.912C640.696 202.28 638.776 205.672 637.304 210.088V241H633.368ZM636.056 241L636.44 237.448L643.832 238.216C644.088 238.216 644.312 238.312 644.504 238.504C644.696 238.696 644.792 238.952 644.792 239.272V241H636.056ZM625.88 241V239.272C625.88 238.952 625.976 238.696 626.168 238.504C626.36 238.312 626.584 238.216 626.84 238.216L634.136 237.448L634.616 241H625.88ZM634.616 193.384L634.136 196.84L626.84 196.168C626.584 196.104 626.36 196.008 626.168 195.88C625.976 195.688 625.88 195.432 625.88 195.112V193.384H634.616ZM672.462 241V193.384H676.398V241H672.462ZM664.974 241V239.272C664.974 238.952 665.07 238.696 665.262 238.504C665.454 238.312 665.678 238.216 665.934 238.216L673.23 237.448L673.71 241H664.974ZM675.15 241L675.534 237.448L682.926 238.216C683.182 238.216 683.406 238.312 683.598 238.504C683.79 238.696 683.886 238.952 683.886 239.272V241H675.15ZM673.71 193.384L673.23 196.84L665.934 196.168C665.678 196.104 665.454 196.008 665.262 195.88C665.07 195.688 664.974 195.432 664.974 195.112V193.384H673.71ZM674.382 180.616C673.358 180.616 672.43 180.232 671.598 179.464C670.83 178.632 670.446 177.704 670.446 176.68C670.446 175.592 670.83 174.664 671.598 173.896C672.366 173.128 673.262 172.744 674.286 172.744C675.374 172.744 676.302 173.128 677.07 173.896C677.902 174.664 678.318 175.592 678.318 176.68C678.318 177.704 677.934 178.632 677.166 179.464C676.398 180.232 675.47 180.616 674.382 180.616ZM704.343 241.768C701.335 241.768 698.615 241.384 696.183 240.616C693.751 239.784 691.703 238.92 690.039 238.024V234.28L692.247 235.24C693.079 235.944 694.519 236.744 696.567 237.64C698.679 238.472 701.207 238.888 704.151 238.888C708.247 238.888 711.415 237.832 713.655 235.72C715.959 233.608 717.111 231.016 717.111 227.944C717.111 225.704 716.471 223.976 715.191 222.76C713.975 221.48 712.343 220.456 710.295 219.688C708.247 218.92 706.071 218.184 703.767 217.48C701.399 216.776 699.191 215.976 697.143 215.08C695.095 214.12 693.431 212.904 692.151 211.432C690.935 209.896 690.327 207.912 690.327 205.48C690.327 202.984 690.999 200.776 692.343 198.856C693.751 196.936 695.607 195.432 697.911 194.344C700.279 193.192 702.903 192.616 705.783 192.616C708.151 192.616 710.455 192.936 712.695 193.576C714.935 194.152 716.919 194.76 718.647 195.4V198.472L716.055 197.704C714.647 197.064 712.983 196.552 711.063 196.168C709.143 195.784 707.447 195.592 705.975 195.592C703.735 195.592 701.687 196.008 699.831 196.84C698.039 197.672 696.599 198.792 695.511 200.2C694.487 201.608 693.975 203.208 693.975 205C693.975 207.048 694.647 208.68 695.991 209.896C697.335 211.112 699.031 212.072 701.079 212.776C703.191 213.48 705.303 214.184 707.415 214.888C709.719 215.592 711.863 216.424 713.847 217.384C715.895 218.344 717.559 219.592 718.839 221.128C720.119 222.664 720.759 224.744 720.759 227.368C720.759 230.12 720.087 232.584 718.743 234.76C717.399 236.936 715.479 238.664 712.983 239.944C710.551 241.16 707.671 241.768 704.343 241.768ZM715.479 196.84L718.647 197.704V206.152H717.111C716.791 206.152 716.535 206.056 716.343 205.864C716.151 205.608 716.055 205.352 716.055 205.096L715.479 196.84ZM693.111 236.68L690.039 235.816V227.368H691.575C691.895 227.368 692.119 227.496 692.247 227.752C692.439 227.944 692.567 228.136 692.631 228.328L693.111 236.68ZM750.25 241.576C745.77 241.576 741.898 240.552 738.634 238.504C735.434 236.392 732.938 233.448 731.146 229.672C729.418 225.832 728.554 221.352 728.554 216.232C728.554 211.624 729.386 207.56 731.05 204.04C732.778 200.456 735.242 197.672 738.442 195.688C741.642 193.64 745.482 192.616 749.962 192.616C753.674 192.616 756.906 193.48 759.658 195.208C762.41 196.872 764.554 199.24 766.09 202.312C767.69 205.384 768.49 209.096 768.49 213.448C768.49 214.024 768.394 214.44 768.202 214.696C768.074 214.888 767.786 214.984 767.338 214.984H732.49C732.49 215.304 732.49 215.624 732.49 215.944C732.49 216.2 732.49 216.584 732.49 217.096C732.618 223.688 734.25 228.904 737.386 232.744C740.522 236.584 744.906 238.504 750.538 238.504C752.906 238.504 755.082 238.152 757.066 237.448C759.114 236.68 760.874 235.88 762.346 235.048C763.882 234.216 764.938 233.672 765.514 233.416C765.962 233.288 766.346 233.384 766.666 233.704L767.53 234.952C766.57 236.232 765.13 237.384 763.21 238.408C761.354 239.368 759.274 240.136 756.97 240.712C754.666 241.288 752.426 241.576 750.25 241.576ZM732.682 212.392H764.938C764.938 207.272 763.562 203.208 760.81 200.2C758.122 197.128 754.538 195.592 750.058 195.592C745.002 195.592 740.97 197.128 737.962 200.2C734.954 203.208 733.194 207.272 732.682 212.392ZM777.724 214.216V210.856H799.804V214.216H777.724ZM826.464 192.616C828.576 192.616 830.496 192.872 832.224 193.384C833.952 193.896 835.52 194.6 836.928 195.496H849.024V196.84C849.024 197.16 848.896 197.416 848.64 197.608C848.448 197.8 848.16 197.928 847.776 197.992L839.808 198.376C842.112 200.872 843.264 204.008 843.264 207.784C843.264 210.856 842.528 213.544 841.056 215.848C839.648 218.152 837.664 219.944 835.104 221.224C832.608 222.44 829.728 223.048 826.464 223.048C824.992 223.048 823.648 222.952 822.432 222.76C821.216 222.504 820.032 222.12 818.88 221.608C817.6 222.376 816.512 223.336 815.616 224.488C814.72 225.576 814.272 226.664 814.272 227.752C814.272 229.224 814.752 230.344 815.712 231.112C816.736 231.816 818.08 232.36 819.744 232.744C821.408 233.064 823.232 233.288 825.216 233.416C827.2 233.48 829.216 233.544 831.264 233.608C834.208 233.8 836.96 234.152 839.52 234.664C842.144 235.176 844.256 236.136 845.856 237.544C847.456 238.888 848.256 240.968 848.256 243.784C848.256 246.664 847.296 249.224 845.376 251.464C843.52 253.768 840.992 255.56 837.792 256.84C834.592 258.184 830.976 258.856 826.944 258.856C822.976 258.856 819.456 258.312 816.384 257.224C813.376 256.2 811.008 254.728 809.28 252.808C807.552 250.888 806.688 248.648 806.688 246.088C806.688 243.528 807.552 241.32 809.28 239.464C811.008 237.608 813.344 236.168 816.288 235.144C814.624 234.632 813.28 233.864 812.256 232.84C811.296 231.816 810.816 230.408 810.816 228.616C810.816 227.208 811.392 225.768 812.544 224.296C813.696 222.76 815.072 221.544 816.672 220.648C814.432 219.368 812.672 217.64 811.392 215.464C810.176 213.224 809.568 210.664 809.568 207.784C809.568 204.712 810.272 202.056 811.68 199.816C813.088 197.512 815.072 195.752 817.632 194.536C820.192 193.256 823.136 192.616 826.464 192.616ZM844.608 244.36C844.608 241.992 843.744 240.296 842.016 239.272C840.288 238.184 838.144 237.512 835.584 237.256C834.88 237.128 833.792 237.032 832.32 236.968C830.848 236.904 829.216 236.808 827.424 236.68C825.696 236.552 824.064 236.424 822.528 236.296C820.992 236.168 819.808 236.008 818.976 235.816C816.48 236.904 814.368 238.216 812.64 239.752C810.976 241.288 810.144 243.272 810.144 245.704C810.144 247.752 810.88 249.544 812.352 251.08C813.824 252.68 815.84 253.896 818.4 254.728C820.96 255.56 823.808 255.976 826.944 255.976C830.08 255.976 832.96 255.496 835.584 254.536C838.272 253.64 840.448 252.296 842.112 250.504C843.776 248.776 844.608 246.728 844.608 244.36ZM826.464 220.36C830.56 220.36 833.76 219.24 836.064 217C838.432 214.696 839.616 211.656 839.616 207.88C839.616 204.104 838.432 201.096 836.064 198.856C833.76 196.616 830.56 195.496 826.464 195.496C822.368 195.496 819.136 196.616 816.768 198.856C814.4 201.096 813.216 204.104 813.216 207.88C813.216 211.656 814.4 214.696 816.768 217C819.2 219.24 822.432 220.36 826.464 220.36ZM861.931 241V193.384H863.947C864.459 193.384 864.811 193.48 865.003 193.672C865.195 193.864 865.323 194.216 865.387 194.728L865.674 205.768C867.147 201.608 869.163 198.376 871.723 196.072C874.283 193.704 877.515 192.52 881.419 192.52C882.891 192.52 884.235 192.68 885.451 193C886.731 193.32 887.915 193.768 889.003 194.344L888.427 196.936C888.363 197.192 888.235 197.384 888.043 197.512C887.851 197.64 887.627 197.672 887.371 197.608C886.859 197.48 885.963 197.256 884.683 196.936C883.403 196.552 882.091 196.36 880.747 196.36C877.035 196.36 873.995 197.544 871.627 199.912C869.259 202.28 867.339 205.672 865.867 210.088V241H861.931ZM864.619 241L865.003 237.448L872.395 238.216C872.651 238.216 872.875 238.312 873.067 238.504C873.259 238.696 873.355 238.952 873.355 239.272V241H864.619ZM854.443 241V239.272C854.443 238.952 854.539 238.696 854.73 238.504C854.923 238.312 855.147 238.216 855.403 238.216L862.699 237.448L863.179 241H854.443ZM863.179 193.384L862.699 196.84L855.403 196.168C855.147 196.104 854.923 196.008 854.73 195.88C854.539 195.688 854.443 195.432 854.443 195.112V193.384H863.179ZM904.731 241.768C902.491 241.768 900.411 241.32 898.491 240.424C896.571 239.464 895.003 238.088 893.787 236.296C892.635 234.44 892.059 232.2 892.059 229.576C892.059 227.528 892.635 225.64 893.787 223.912C895.003 222.184 896.859 220.68 899.355 219.4C901.787 218.184 904.923 217.192 908.763 216.424C912.667 215.656 917.307 215.208 922.683 215.08V209.896C922.683 205.416 921.723 201.928 919.803 199.432C917.883 196.936 914.971 195.688 911.067 195.688C909.211 195.688 907.387 196.04 905.595 196.744C903.867 197.384 902.267 198.184 900.795 199.144C899.323 200.104 897.979 201 896.763 201.832C896.443 201.896 896.155 201.896 895.899 201.832C895.643 201.768 895.419 201.608 895.227 201.352L894.459 200.104C896.955 197.608 899.547 195.72 902.235 194.44C904.923 193.16 907.995 192.52 911.451 192.52C914.843 192.52 917.627 193.256 919.803 194.728C922.043 196.136 923.707 198.152 924.795 200.776C925.947 203.336 926.523 206.376 926.523 209.896V241H924.987C924.475 241 924.091 240.936 923.835 240.808C923.643 240.616 923.515 240.264 923.451 239.752L922.875 233.224C920.251 235.848 917.531 237.928 914.715 239.464C911.963 241 908.635 241.768 904.731 241.768ZM905.595 238.888C909.435 238.888 912.635 238.12 915.195 236.584C917.755 234.984 920.251 232.968 922.683 230.536V217.768C919.163 217.832 915.771 218.088 912.507 218.536C909.307 218.984 906.459 219.656 903.963 220.552C901.467 221.384 899.483 222.536 898.011 224.008C896.603 225.416 895.899 227.208 895.899 229.384C895.899 232.52 896.859 234.888 898.779 236.488C900.699 238.088 902.971 238.888 905.595 238.888ZM925.275 241L925.659 237.448L933.051 238.216C933.307 238.216 933.531 238.312 933.723 238.504C933.915 238.696 934.011 238.952 934.011 239.272V241H925.275ZM958.212 241.576C954.18 241.576 950.756 240.648 947.94 238.792C945.188 236.936 943.076 234.216 941.604 230.632C940.196 226.984 939.492 222.536 939.492 217.288C939.492 212.616 940.292 208.424 941.892 204.712C943.556 201 945.924 198.056 948.996 195.88C952.132 193.64 955.908 192.52 960.324 192.52C963.588 192.52 966.436 193.16 968.868 194.44C971.3 195.656 973.38 197.512 975.108 200.008V171.304H979.044V241H976.932C976.164 241 975.748 240.616 975.684 239.848L975.204 231.976C973.092 234.856 970.596 237.192 967.716 238.984C964.9 240.712 961.732 241.576 958.212 241.576ZM959.268 238.408C962.532 238.408 965.476 237.576 968.1 235.912C970.724 234.184 973.06 231.784 975.108 228.712V203.464C973.252 200.584 971.172 198.568 968.868 197.416C966.564 196.264 963.94 195.688 960.996 195.688C957.22 195.688 954.02 196.616 951.396 198.472C948.772 200.264 946.788 202.792 945.444 206.056C944.164 209.256 943.524 213 943.524 217.288C943.524 224.328 944.836 229.608 947.46 233.128C950.084 236.648 954.02 238.408 959.268 238.408ZM976.356 171.304L975.876 174.76L968.58 174.088C968.324 174.024 968.1 173.928 967.908 173.8C967.716 173.608 967.62 173.352 967.62 173.032V171.304H976.356ZM977.796 241L978.18 237.448L985.572 238.216C985.828 238.216 986.052 238.312 986.244 238.504C986.436 238.696 986.532 238.952 986.532 239.272V241H977.796ZM1013.78 241.576C1009.3 241.576 1005.43 240.552 1002.17 238.504C998.966 236.392 996.47 233.448 994.678 229.672C992.95 225.832 992.086 221.352 992.086 216.232C992.086 211.624 992.918 207.56 994.582 204.04C996.31 200.456 998.774 197.672 1001.97 195.688C1005.17 193.64 1009.01 192.616 1013.49 192.616C1017.21 192.616 1020.44 193.48 1023.19 195.208C1025.94 196.872 1028.09 199.24 1029.62 202.312C1031.22 205.384 1032.02 209.096 1032.02 213.448C1032.02 214.024 1031.93 214.44 1031.73 214.696C1031.61 214.888 1031.32 214.984 1030.87 214.984H996.022C996.022 215.304 996.022 215.624 996.022 215.944C996.022 216.2 996.022 216.584 996.022 217.096C996.15 223.688 997.782 228.904 1000.92 232.744C1004.05 236.584 1008.44 238.504 1014.07 238.504C1016.44 238.504 1018.61 238.152 1020.6 237.448C1022.65 236.68 1024.41 235.88 1025.88 235.048C1027.41 234.216 1028.47 233.672 1029.05 233.416C1029.49 233.288 1029.88 233.384 1030.2 233.704L1031.06 234.952C1030.1 236.232 1028.66 237.384 1026.74 238.408C1024.89 239.368 1022.81 240.136 1020.5 240.712C1018.2 241.288 1015.96 241.576 1013.78 241.576ZM996.214 212.392H1028.47C1028.47 207.272 1027.09 203.208 1024.34 200.2C1021.65 197.128 1018.07 195.592 1013.59 195.592C1008.53 195.592 1004.5 197.128 1001.49 200.2C998.486 203.208 996.726 207.272 996.214 212.392ZM1067.72 241L1095.56 173.224H1099.68L1127.52 241H1124.26C1123.88 241 1123.56 240.904 1123.3 240.712C1123.04 240.456 1122.85 240.168 1122.72 239.848L1098.82 181.096C1098.69 180.584 1098.5 180.008 1098.24 179.368C1097.99 178.664 1097.76 178.024 1097.57 177.448C1097.38 178.024 1097.19 178.664 1097 179.368C1096.8 180.072 1096.58 180.648 1096.32 181.096L1072.42 239.848C1072.36 240.168 1072.16 240.456 1071.84 240.712C1071.59 240.904 1071.27 241 1070.88 241H1067.72ZM1070.69 241V238.12H1073.38V241H1070.69ZM1080.2 218.344L1081.25 215.272H1113.99L1115.04 218.344H1080.2ZM1121.76 241V238.12H1124.45V241H1121.76ZM1062.63 241V239.272C1062.63 238.952 1062.72 238.696 1062.92 238.504C1063.11 238.312 1063.33 238.216 1063.59 238.216L1070.88 237.448L1071.36 241H1062.63ZM1071.46 241L1071.94 237.448L1079.24 238.216C1079.49 238.216 1079.72 238.312 1079.91 238.504C1080.1 238.696 1080.2 238.952 1080.2 239.272V241H1071.46ZM1114.95 241V239.272C1114.95 238.952 1115.04 238.696 1115.24 238.504C1115.43 238.312 1115.68 238.216 1116 238.216L1123.3 237.448L1123.78 241H1114.95ZM1123.78 241L1124.26 237.448L1131.56 238.216C1131.88 238.216 1132.13 238.312 1132.32 238.504C1132.52 238.696 1132.61 238.952 1132.61 239.272V241H1123.78ZM1145.26 241V173.224H1149.49V241H1145.26ZM1137.78 241V239.272C1137.78 238.952 1137.87 238.696 1138.06 238.504C1138.26 238.312 1138.48 238.216 1138.74 238.216L1146.03 237.448L1146.51 241H1137.78ZM1148.24 241L1148.72 237.448L1156.02 238.216C1156.27 238.216 1156.5 238.312 1156.69 238.504C1156.88 238.696 1156.98 238.952 1156.98 239.272V241H1148.24ZM1146.51 173.224L1146.03 176.68L1138.74 176.008C1138.48 175.944 1138.26 175.848 1138.06 175.72C1137.87 175.528 1137.78 175.272 1137.78 174.952V173.224H1146.51ZM1156.98 173.224V174.952C1156.98 175.272 1156.88 175.528 1156.69 175.72C1156.5 175.848 1156.27 175.944 1156.02 176.008L1148.72 176.68L1148.24 173.224H1156.98ZM1197.48 241V173.224H1201.71V241H1197.48ZM1189.99 241V239.272C1189.99 238.952 1190.09 238.696 1190.28 238.504C1190.47 238.312 1190.7 238.216 1190.95 238.216L1198.25 237.448L1198.73 241H1189.99ZM1200.46 241L1200.94 237.448L1208.23 238.216C1208.49 238.216 1208.71 238.312 1208.91 238.504C1209.1 238.696 1209.19 238.952 1209.19 239.272V241H1200.46ZM1198.73 173.224L1198.25 176.68L1190.95 176.008C1190.7 175.944 1190.47 175.848 1190.28 175.72C1190.09 175.528 1189.99 175.272 1189.99 174.952V173.224H1198.73ZM1209.19 173.224V174.952C1209.19 175.272 1209.1 175.528 1208.91 175.72C1208.71 175.848 1208.49 175.944 1208.23 176.008L1200.94 176.68L1200.46 173.224H1209.19ZM1223.34 241V193.384H1225.45C1226.22 193.384 1226.63 193.768 1226.7 194.536L1227.08 202.12C1229.26 199.24 1231.82 196.936 1234.76 195.208C1237.7 193.48 1240.97 192.616 1244.55 192.616C1248.14 192.616 1251.08 193.352 1253.38 194.824C1255.69 196.232 1257.42 198.28 1258.57 200.968C1259.78 203.656 1260.39 206.856 1260.39 210.568V241H1256.55V210.568C1256.55 205.832 1255.5 202.184 1253.38 199.624C1251.27 197 1248.04 195.688 1243.69 195.688C1240.42 195.688 1237.42 196.552 1234.66 198.28C1231.91 199.944 1229.45 202.248 1227.27 205.192V241H1223.34ZM1215.85 241V239.272C1215.85 238.952 1215.94 238.696 1216.14 238.504C1216.33 238.312 1216.55 238.216 1216.81 238.216L1224.1 237.448L1224.58 241H1215.85ZM1226.02 241L1226.41 237.448L1233.8 238.216C1234.06 238.216 1234.28 238.312 1234.47 238.504C1234.66 238.696 1234.76 238.952 1234.76 239.272V241H1226.02ZM1259.14 241L1259.62 237.448L1266.92 238.216C1267.24 238.216 1267.5 238.312 1267.69 238.504C1267.88 238.696 1267.98 238.952 1267.98 239.272V241H1259.14ZM1224.58 193.384L1224.1 196.84L1216.81 196.168C1216.55 196.104 1216.33 196.008 1216.14 195.88C1215.94 195.688 1215.85 195.432 1215.85 195.112V193.384H1224.58ZM1280.73 241V197.896L1273.82 197.608C1273.43 197.544 1273.11 197.448 1272.86 197.32C1272.66 197.128 1272.57 196.872 1272.57 196.552V195.016H1280.73V188.68C1280.73 183.432 1282.01 179.432 1284.57 176.68C1287.13 173.864 1290.62 172.456 1295.03 172.456C1296.06 172.456 1297.05 172.552 1298.01 172.744C1299.03 172.872 1299.9 173.096 1300.6 173.416L1300.5 175.24C1300.44 175.56 1300.25 175.752 1299.93 175.816C1299.61 175.88 1299.19 175.848 1298.68 175.72C1298.3 175.592 1297.82 175.528 1297.24 175.528C1296.73 175.464 1296.15 175.432 1295.51 175.432C1292.12 175.432 1289.43 176.52 1287.45 178.696C1285.53 180.872 1284.57 184.232 1284.57 188.776V195.016H1300.31V197.896H1284.66V241H1280.73ZM1273.24 241V239.272C1273.24 238.952 1273.34 238.696 1273.53 238.504C1273.72 238.312 1273.94 238.216 1274.2 238.216L1281.5 237.448L1281.98 241H1273.24ZM1283.42 241L1283.9 237.448L1291.19 238.216C1291.45 238.216 1291.67 238.312 1291.86 238.504C1292.06 238.696 1292.15 238.952 1292.15 239.272V241H1283.42ZM1314.46 241V193.384H1316.48C1316.99 193.384 1317.34 193.48 1317.53 193.672C1317.73 193.864 1317.85 194.216 1317.92 194.728L1318.21 205.768C1319.68 201.608 1321.69 198.376 1324.25 196.072C1326.81 193.704 1330.05 192.52 1333.95 192.52C1335.42 192.52 1336.77 192.68 1337.98 193C1339.26 193.32 1340.45 193.768 1341.53 194.344L1340.96 196.936C1340.89 197.192 1340.77 197.384 1340.57 197.512C1340.38 197.64 1340.16 197.672 1339.9 197.608C1339.39 197.48 1338.49 197.256 1337.21 196.936C1335.93 196.552 1334.62 196.36 1333.28 196.36C1329.57 196.36 1326.53 197.544 1324.16 199.912C1321.79 202.28 1319.87 205.672 1318.4 210.088V241H1314.46ZM1317.15 241L1317.53 237.448L1324.93 238.216C1325.18 238.216 1325.41 238.312 1325.6 238.504C1325.79 238.696 1325.89 238.952 1325.89 239.272V241H1317.15ZM1306.97 241V239.272C1306.97 238.952 1307.07 238.696 1307.26 238.504C1307.45 238.312 1307.68 238.216 1307.93 238.216L1315.23 237.448L1315.71 241H1306.97ZM1315.71 193.384L1315.23 196.84L1307.93 196.168C1307.68 196.104 1307.45 196.008 1307.26 195.88C1307.07 195.688 1306.97 195.432 1306.97 195.112V193.384H1315.71ZM1357.26 241.768C1355.02 241.768 1352.94 241.32 1351.02 240.424C1349.1 239.464 1347.53 238.088 1346.32 236.296C1345.17 234.44 1344.59 232.2 1344.59 229.576C1344.59 227.528 1345.17 225.64 1346.32 223.912C1347.53 222.184 1349.39 220.68 1351.89 219.4C1354.32 218.184 1357.45 217.192 1361.29 216.424C1365.2 215.656 1369.84 215.208 1375.21 215.08V209.896C1375.21 205.416 1374.25 201.928 1372.33 199.432C1370.41 196.936 1367.5 195.688 1363.6 195.688C1361.74 195.688 1359.92 196.04 1358.13 196.744C1356.4 197.384 1354.8 198.184 1353.33 199.144C1351.85 200.104 1350.51 201 1349.29 201.832C1348.97 201.896 1348.69 201.896 1348.43 201.832C1348.17 201.768 1347.95 201.608 1347.76 201.352L1346.99 200.104C1349.49 197.608 1352.08 195.72 1354.77 194.44C1357.45 193.16 1360.53 192.52 1363.98 192.52C1367.37 192.52 1370.16 193.256 1372.33 194.728C1374.57 196.136 1376.24 198.152 1377.33 200.776C1378.48 203.336 1379.05 206.376 1379.05 209.896V241H1377.52C1377.01 241 1376.62 240.936 1376.37 240.808C1376.17 240.616 1376.05 240.264 1375.98 239.752L1375.41 233.224C1372.78 235.848 1370.06 237.928 1367.25 239.464C1364.49 241 1361.17 241.768 1357.26 241.768ZM1358.13 238.888C1361.97 238.888 1365.17 238.12 1367.73 236.584C1370.29 234.984 1372.78 232.968 1375.21 230.536V217.768C1371.69 217.832 1368.3 218.088 1365.04 218.536C1361.84 218.984 1358.99 219.656 1356.49 220.552C1354 221.384 1352.01 222.536 1350.54 224.008C1349.13 225.416 1348.43 227.208 1348.43 229.384C1348.43 232.52 1349.39 234.888 1351.31 236.488C1353.23 238.088 1355.5 238.888 1358.13 238.888ZM1377.81 241L1378.19 237.448L1385.58 238.216C1385.84 238.216 1386.06 238.312 1386.25 238.504C1386.45 238.696 1386.54 238.952 1386.54 239.272V241H1377.81ZM1407 241.768C1403.99 241.768 1401.27 241.384 1398.84 240.616C1396.41 239.784 1394.36 238.92 1392.7 238.024V234.28L1394.9 235.24C1395.74 235.944 1397.18 236.744 1399.22 237.64C1401.34 238.472 1403.86 238.888 1406.81 238.888C1410.9 238.888 1414.07 237.832 1416.31 235.72C1418.62 233.608 1419.77 231.016 1419.77 227.944C1419.77 225.704 1419.13 223.976 1417.85 222.76C1416.63 221.48 1415 220.456 1412.95 219.688C1410.9 218.92 1408.73 218.184 1406.42 217.48C1404.06 216.776 1401.85 215.976 1399.8 215.08C1397.75 214.12 1396.09 212.904 1394.81 211.432C1393.59 209.896 1392.98 207.912 1392.98 205.48C1392.98 202.984 1393.66 200.776 1395 198.856C1396.41 196.936 1398.26 195.432 1400.57 194.344C1402.94 193.192 1405.56 192.616 1408.44 192.616C1410.81 192.616 1413.11 192.936 1415.35 193.576C1417.59 194.152 1419.58 194.76 1421.3 195.4V198.472L1418.71 197.704C1417.3 197.064 1415.64 196.552 1413.72 196.168C1411.8 195.784 1410.1 195.592 1408.63 195.592C1406.39 195.592 1404.34 196.008 1402.49 196.84C1400.7 197.672 1399.26 198.792 1398.17 200.2C1397.14 201.608 1396.63 203.208 1396.63 205C1396.63 207.048 1397.3 208.68 1398.65 209.896C1399.99 211.112 1401.69 212.072 1403.74 212.776C1405.85 213.48 1407.96 214.184 1410.07 214.888C1412.38 215.592 1414.52 216.424 1416.5 217.384C1418.55 218.344 1420.22 219.592 1421.5 221.128C1422.78 222.664 1423.42 224.744 1423.42 227.368C1423.42 230.12 1422.74 232.584 1421.4 234.76C1420.06 236.936 1418.14 238.664 1415.64 239.944C1413.21 241.16 1410.33 241.768 1407 241.768ZM1418.14 196.84L1421.3 197.704V206.152H1419.77C1419.45 206.152 1419.19 206.056 1419 205.864C1418.81 205.608 1418.71 205.352 1418.71 205.096L1418.14 196.84ZM1395.77 236.68L1392.7 235.816V227.368H1394.23C1394.55 227.368 1394.78 227.496 1394.9 227.752C1395.1 227.944 1395.22 228.136 1395.29 228.328L1395.77 236.68ZM1447.24 241.768C1444.11 241.768 1441.64 240.904 1439.85 239.176C1438.12 237.448 1437.26 234.728 1437.26 231.016V197.896H1430.25C1429.87 197.896 1429.58 197.8 1429.39 197.608C1429.19 197.416 1429.1 197.16 1429.1 196.84V195.496L1437.35 194.92L1438.41 177.448C1438.41 176.808 1438.73 176.488 1439.37 176.488H1441.19V195.016H1456.46V197.896H1441.19V230.824C1441.19 233.448 1441.83 235.4 1443.11 236.68C1444.39 237.96 1446.03 238.6 1448.01 238.6C1448.97 238.6 1449.99 238.312 1451.08 237.736C1452.17 237.16 1453.13 236.616 1453.96 236.104C1454.86 235.528 1455.47 235.24 1455.79 235.24C1456.04 235.24 1456.27 235.368 1456.46 235.624L1457.51 237.256C1456.36 238.6 1454.83 239.688 1452.91 240.52C1450.99 241.352 1449.1 241.768 1447.24 241.768ZM1470.09 241V193.384H1472.1C1472.61 193.384 1472.97 193.48 1473.16 193.672C1473.35 193.864 1473.48 194.216 1473.54 194.728L1473.83 205.768C1475.3 201.608 1477.32 198.376 1479.88 196.072C1482.44 193.704 1485.67 192.52 1489.57 192.52C1491.05 192.52 1492.39 192.68 1493.61 193C1494.89 193.32 1496.07 193.768 1497.16 194.344L1496.58 196.936C1496.52 197.192 1496.39 197.384 1496.2 197.512C1496.01 197.64 1495.78 197.672 1495.53 197.608C1495.01 197.48 1494.12 197.256 1492.84 196.936C1491.56 196.552 1490.25 196.36 1488.9 196.36C1485.19 196.36 1482.15 197.544 1479.78 199.912C1477.41 202.28 1475.49 205.672 1474.02 210.088V241H1470.09ZM1472.77 241L1473.16 237.448L1480.55 238.216C1480.81 238.216 1481.03 238.312 1481.22 238.504C1481.41 238.696 1481.51 238.952 1481.51 239.272V241H1472.77ZM1462.6 241V239.272C1462.6 238.952 1462.69 238.696 1462.89 238.504C1463.08 238.312 1463.3 238.216 1463.56 238.216L1470.85 237.448L1471.33 241H1462.6ZM1471.33 193.384L1470.85 196.84L1463.56 196.168C1463.3 196.104 1463.08 196.008 1462.89 195.88C1462.69 195.688 1462.6 195.432 1462.6 195.112V193.384H1471.33ZM1522.91 241.768C1519.45 241.768 1516.54 241.032 1514.17 239.56C1511.8 238.088 1510.01 236.04 1508.8 233.416C1507.64 230.728 1507.07 227.528 1507.07 223.816V193.384H1511V223.816C1511 228.424 1512.06 232.04 1514.17 234.664C1516.28 237.288 1519.52 238.6 1523.87 238.6C1527.13 238.6 1530.14 237.768 1532.89 236.104C1535.64 234.44 1538.11 232.136 1540.28 229.192V193.384H1544.12V241H1542.11C1541.34 241 1540.89 240.616 1540.76 239.848L1540.48 232.264C1538.36 235.08 1535.8 237.384 1532.8 239.176C1529.79 240.904 1526.49 241.768 1522.91 241.768ZM1542.88 241L1543.36 237.448L1550.65 238.216C1550.97 238.216 1551.23 238.312 1551.42 238.504C1551.61 238.696 1551.71 238.952 1551.71 239.272V241H1542.88ZM1508.32 193.384L1507.84 196.84L1500.54 196.168C1500.28 196.104 1500.06 196.008 1499.87 195.88C1499.68 195.688 1499.58 195.432 1499.58 195.112V193.384H1508.32ZM1541.53 193.384L1541.05 196.84L1533.76 196.168C1533.5 196.104 1533.24 196.008 1532.99 195.88C1532.8 195.688 1532.7 195.432 1532.7 195.112V193.384H1541.53ZM1577.56 241.576C1573.4 241.576 1569.79 240.584 1566.72 238.6C1563.64 236.552 1561.28 233.704 1559.61 230.056C1557.95 226.344 1557.12 222.056 1557.12 217.192C1557.12 212.328 1557.95 208.072 1559.61 204.424C1561.28 200.712 1563.71 197.832 1566.91 195.784C1570.11 193.672 1574.01 192.616 1578.62 192.616C1580.67 192.616 1582.81 192.904 1585.05 193.48C1587.36 194.056 1589.6 194.856 1591.77 195.88V198.184L1589.37 198.088C1587.71 197.32 1586.01 196.744 1584.28 196.36C1582.62 195.912 1580.8 195.688 1578.81 195.688C1574.97 195.688 1571.74 196.584 1569.12 198.376C1566.56 200.168 1564.57 202.664 1563.16 205.864C1561.82 209.064 1561.15 212.84 1561.15 217.192C1561.15 223.592 1562.62 228.744 1565.56 232.648C1568.57 236.552 1572.76 238.504 1578.14 238.504C1580.25 238.504 1582.14 238.248 1583.8 237.736C1585.47 237.16 1586.94 236.488 1588.22 235.72C1589.56 234.888 1590.65 234.12 1591.48 233.416C1591.68 233.288 1591.87 233.256 1592.06 233.32C1592.32 233.384 1592.48 233.512 1592.54 233.704L1593.6 234.952C1592.06 236.936 1589.88 238.536 1587.07 239.752C1584.25 240.968 1581.08 241.576 1577.56 241.576ZM1588.6 197.32L1591.77 198.184V206.632H1590.14C1589.82 206.632 1589.56 206.536 1589.37 206.344C1589.24 206.088 1589.18 205.832 1589.18 205.576L1588.6 197.32ZM1616.27 241.768C1613.14 241.768 1610.67 240.904 1608.88 239.176C1607.15 237.448 1606.29 234.728 1606.29 231.016V197.896H1599.28C1598.9 197.896 1598.61 197.8 1598.42 197.608C1598.23 197.416 1598.13 197.16 1598.13 196.84V195.496L1606.39 194.92L1607.44 177.448C1607.44 176.808 1607.76 176.488 1608.4 176.488H1610.23V195.016H1625.49V197.896H1610.23V230.824C1610.23 233.448 1610.87 235.4 1612.15 236.68C1613.43 237.96 1615.06 238.6 1617.04 238.6C1618 238.6 1619.03 238.312 1620.11 237.736C1621.2 237.16 1622.16 236.616 1622.99 236.104C1623.89 235.528 1624.5 235.24 1624.82 235.24C1625.07 235.24 1625.3 235.368 1625.49 235.624L1626.55 237.256C1625.39 238.6 1623.86 239.688 1621.94 240.52C1620.02 241.352 1618.13 241.768 1616.27 241.768ZM1652.85 241.768C1649.39 241.768 1646.48 241.032 1644.11 239.56C1641.74 238.088 1639.95 236.04 1638.73 233.416C1637.58 230.728 1637.01 227.528 1637.01 223.816V193.384H1640.94V223.816C1640.94 228.424 1642 232.04 1644.11 234.664C1646.22 237.288 1649.45 238.6 1653.81 238.6C1657.07 238.6 1660.08 237.768 1662.83 236.104C1665.58 234.44 1668.05 232.136 1670.22 229.192V193.384H1674.06V241H1672.05C1671.28 241 1670.83 240.616 1670.7 239.848L1670.41 232.264C1668.3 235.08 1665.74 237.384 1662.73 239.176C1659.73 240.904 1656.43 241.768 1652.85 241.768ZM1672.81 241L1673.29 237.448L1680.59 238.216C1680.91 238.216 1681.17 238.312 1681.36 238.504C1681.55 238.696 1681.65 238.952 1681.65 239.272V241H1672.81ZM1638.25 193.384L1637.77 196.84L1630.48 196.168C1630.22 196.104 1630 196.008 1629.81 195.88C1629.61 195.688 1629.52 195.432 1629.52 195.112V193.384H1638.25ZM1671.47 193.384L1670.99 196.84L1663.69 196.168C1663.44 196.104 1663.18 196.008 1662.93 195.88C1662.73 195.688 1662.64 195.432 1662.64 195.112V193.384H1671.47ZM1693.77 241V193.384H1695.79C1696.3 193.384 1696.65 193.48 1696.85 193.672C1697.04 193.864 1697.17 194.216 1697.23 194.728L1697.52 205.768C1698.99 201.608 1701.01 198.376 1703.57 196.072C1706.13 193.704 1709.36 192.52 1713.26 192.52C1714.73 192.52 1716.08 192.68 1717.29 193C1718.57 193.32 1719.76 193.768 1720.85 194.344L1720.27 196.936C1720.21 197.192 1720.08 197.384 1719.89 197.512C1719.69 197.64 1719.47 197.672 1719.21 197.608C1718.7 197.48 1717.81 197.256 1716.53 196.936C1715.25 196.552 1713.93 196.36 1712.59 196.36C1708.88 196.36 1705.84 197.544 1703.47 199.912C1701.1 202.28 1699.18 205.672 1697.71 210.088V241H1693.77ZM1696.46 241L1696.85 237.448L1704.24 238.216C1704.49 238.216 1704.72 238.312 1704.91 238.504C1705.1 238.696 1705.2 238.952 1705.2 239.272V241H1696.46ZM1686.29 241V239.272C1686.29 238.952 1686.38 238.696 1686.57 238.504C1686.77 238.312 1686.99 238.216 1687.25 238.216L1694.54 237.448L1695.02 241H1686.29ZM1695.02 193.384L1694.54 196.84L1687.25 196.168C1686.99 196.104 1686.77 196.008 1686.57 195.88C1686.38 195.688 1686.29 195.432 1686.29 195.112V193.384H1695.02ZM1747.84 241.576C1743.36 241.576 1739.49 240.552 1736.23 238.504C1733.03 236.392 1730.53 233.448 1728.74 229.672C1727.01 225.832 1726.15 221.352 1726.15 216.232C1726.15 211.624 1726.98 207.56 1728.64 204.04C1730.37 200.456 1732.84 197.672 1736.04 195.688C1739.24 193.64 1743.08 192.616 1747.56 192.616C1751.27 192.616 1754.5 193.48 1757.25 195.208C1760 196.872 1762.15 199.24 1763.68 202.312C1765.28 205.384 1766.08 209.096 1766.08 213.448C1766.08 214.024 1765.99 214.44 1765.8 214.696C1765.67 214.888 1765.38 214.984 1764.93 214.984H1730.08C1730.08 215.304 1730.08 215.624 1730.08 215.944C1730.08 216.2 1730.08 216.584 1730.08 217.096C1730.21 223.688 1731.84 228.904 1734.98 232.744C1738.12 236.584 1742.5 238.504 1748.13 238.504C1750.5 238.504 1752.68 238.152 1754.66 237.448C1756.71 236.68 1758.47 235.88 1759.94 235.048C1761.48 234.216 1762.53 233.672 1763.11 233.416C1763.56 233.288 1763.94 233.384 1764.26 233.704L1765.12 234.952C1764.16 236.232 1762.72 237.384 1760.8 238.408C1758.95 239.368 1756.87 240.136 1754.56 240.712C1752.26 241.288 1750.02 241.576 1747.84 241.576ZM1730.28 212.392H1762.53C1762.53 207.272 1761.16 203.208 1758.4 200.2C1755.72 197.128 1752.13 195.592 1747.65 195.592C1742.6 195.592 1738.56 197.128 1735.56 200.2C1732.55 203.208 1730.79 207.272 1730.28 212.392Z" fill="#A3ACB1"/>
<path d="M259.347 145.132H119.006L69.2442 26.5174C63.9349 13.9143 73.2153 0 86.8304 0H227.156L276.918 118.614C282.228 131.203 272.947 145.132 259.347 145.132Z" fill="#519FF4"/>
<path d="M258.012 163.841L244.769 180.933C239.134 188.157 230.523 192.433 221.592 192.433H86.4545L36.4422 74.4801C32.7972 65.9413 34.1187 56.0734 39.7531 48.8494L50.6878 34.4014L105.333 163.841H258.012Z" fill="#51B5BC"/>
<path d="M220.385 211.995L207.149 229.215C201.518 236.499 192.912 240.811 183.972 240.811H66.4611C57.855 240.811 50.2502 235.843 46.9412 227.889L2.25602 120.551C-1.72051 110.951 -0.399841 99.6899 5.89876 91.4007L15.8256 78.4788L71.7583 211.995H220.385Z" fill="#519FF4"/>
</svg>
